<?xml version="1.0" encoding="utf-8"?>
<?xml-stylesheet type="text/xsl" href="rss1.xsl"?>
<rss version="2.0" xmlns:atom="http://www.w3.org/2005/Atom" xmlns:content="http://purl.org/rss/1.0/modules/content/" xmlns:dc="http://purl.org/dc/elements/1.1/" xmlns:media="http://search.yahoo.com/mrss/">
<channel>
 <title>Getty</title>
 <link>http://www.gettyimg.com/</link>
 <atom:link href="http://www.gettyimg.com/" rel="self" type="application/rss+xml" />

 
                <item>
                <title><![CDATA[【HD Live Performances】FEED - Jessie Ware - Live @ Glastonbury 2024 FEED HDTV H264 1080i 422 MP2-ilya2129]]></title>
                <link><![CDATA[https://sharemania.us/threads/jessie-ware-live-glastonbury-2024-feed-hdtv-h264-1080i-422-mp2-ilya2129.248400/]]></link>
                <description><![CDATA[<article>
<blockquote class="messageText SelectQuoteContainer ugc baseHtml">
<div style="text-align: center"><img src="https://i122.fastpic.org/big/2023/0623/b4/b37c6294354538a70aac338bdf3af5b4.png?r=1" class="bbCodeImage LbImage" alt="[​IMG]" data-url="https://i122.fastpic.org/big/2023/0623/b4/b37c6294354538a70aac338bdf3af5b4.png?r=1" style=""><br>
<br>
<a href="https://fastpic.org/view/123/2024/0701/_3069c842d8cba736358ecf51751424fa.png.html" target="_blank" class="externalLink" rel="nofollow"><img src="https://i123.fastpic.org/thumb/2024/0701/fa/_3069c842d8cba736358ecf51751424fa.jpeg" class="bbCodeImage LbImage" alt="[​IMG]" data-url="https://i123.fastpic.org/thumb/2024/0701/fa/_3069c842d8cba736358ecf51751424fa.jpeg"></a> <a href="https://fastpic.org/view/123/2024/0701/_0b640f89f22a544e2f8f97ef0aa85786.png.html" target="_blank" class="externalLink" rel="nofollow"><img src="https://i123.fastpic.org/thumb/2024/0701/86/_0b640f89f22a544e2f8f97ef0aa85786.jpeg" class="bbCodeImage LbImage" alt="[​IMG]" data-url="https://i123.fastpic.org/thumb/2024/0701/86/_0b640f89f22a544e2f8f97ef0aa85786.jpeg"></a> <a href="https://fastpic.org/view/123/2024/0701/_4c191da2f86b2da29db145a31f5c19dc.png.html" target="_blank" class="externalLink" rel="nofollow"><img src="https://i123.fastpic.org/thumb/2024/0701/dc/_4c191da2f86b2da29db145a31f5c19dc.jpeg" class="bbCodeImage LbImage" alt="[​IMG]" data-url="https://i123.fastpic.org/thumb/2024/0701/dc/_4c191da2f86b2da29db145a31f5c19dc.jpeg"></a> <a href="https://fastpic.org/view/123/2024/0701/_1d8c8689819ba1c7afcf6d02d8f6d892.png.html" target="_blank" class="externalLink" rel="nofollow"><img src="https://i123.fastpic.org/thumb/2024/0701/92/_1d8c8689819ba1c7afcf6d02d8f6d892.jpeg" class="bbCodeImage LbImage" alt="[​IMG]" data-url="https://i123.fastpic.org/thumb/2024/0701/92/_1d8c8689819ba1c7afcf6d02d8f6d892.jpeg"></a> <a href="https://fastpic.org/view/123/2024/0701/_0f85469da5ff63f3309d6081d94ea381.png.html" target="_blank" class="externalLink" rel="nofollow"><img src="https://i123.fastpic.org/thumb/2024/0701/81/_0f85469da5ff63f3309d6081d94ea381.jpeg" class="bbCodeImage LbImage" alt="[​IMG]" data-url="https://i123.fastpic.org/thumb/2024/0701/81/_0f85469da5ff63f3309d6081d94ea381.jpeg"></a> <a href="https://fastpic.org/view/123/2024/0701/_6d744939b375fa7f61c829f9d97b3369.png.html" target="_blank" class="externalLink" rel="nofollow"><img src="https://i123.fastpic.org/thumb/2024/0701/69/_6d744939b375fa7f61c829f9d97b3369.jpeg" class="bbCodeImage LbImage" alt="[​IMG]" data-url="https://i123.fastpic.org/thumb/2024/0701/69/_6d744939b375fa7f61c829f9d97b3369.jpeg"></a><br>
<br>
<i><br>
That! Feels Good!<br>
Shake the Bottle<br>
Ooh La La<br>
Pearls<br>
Begin Again<br>
Hello Love<br>
Remember Where You Are<br>
Say You Love Me<br>
Lift You Up<br>
Freak Me Now<br>
Running<br>
Hot N Heavy<br>
What's Your Pleasure?<br>
Overtime / Adore You<br>
Mirage (Don't Stop)<br>
Spotlight<br>
Save a Kiss<br>
Beautiful People<br>
Believe (Cher cover)<br>
Free Yourself<br>
</i><br>
​</div><br>
<div class="bbCodeBlock bbCodeCode">
<div class="type">Code:</div>
<pre>G
General
ID                                       : 1 (0x1)
Complete name                            : C:\Recordings\Glasto 2024\Jessie Ware - Live @ Glastonbury 2024 FEED HDTV H264 1080i 422 MP2-ilya2129.ts
Format                                   : MPEG-TS
File size                                : 18.7 GiB
Duration                                 : 1 h 25 min
Overall bit rate mode                    : Variable
Overall bit rate                         : 31.3 Mb/s
Frame rate                               : 25.000 FPS

Video
ID                                       : 501 (0x1F5)
Menu ID                                  : 1 (0x1)
Format                                   : AVC
Format/Info                              : Advanced Video Codec
Format profile                           : High 4:2:2@L4.1
Format settings                          : CABAC / 4 Ref Frames
Format settings, CABAC                   : Yes
Format settings, Reference frames        : 4 frames
Codec ID                                 : 27
Duration                                 : 1 h 25 min
Bit rate                                 : 29.3 Mb/s
Width                                    : 1 920 pixels
Height                                   : 1 080 pixels
Display aspect ratio                     : 16:9
Active Format Description                : Full frame 16:9 image
Frame rate                               : 25.000 FPS
Color space                              : YUV
Chroma subsampling                       : 4:2:2
Bit depth                                : 10 bits
Scan type                                : Interlaced
Scan type, store method                  : Separated fields
Scan order                               : Top Field First
Bits/(Pixel*Frame)                       : 0.566
Stream size                              : 17.5 GiB (94%)
Color range                              : Limited
Color primaries                          : BT.709
Transfer characteristics                 : BT.709
Matrix coefficients                      : BT.709

Audio
ID                                       : 4112 (0x1010)
Menu ID                                  : 1 (0x1)
Format                                   : MPEG Audio
Format version                           : Version 1
Format profile                           : Layer 2
Codec ID                                 : 4
Duration                                 : 1 h 25 min
Bit rate mode                            : Constant
Bit rate                                 : 384 kb/s
Channel(s)                               : 2 channels
Sampling rate                            : 48.0 kHz
Frame rate                               : 41.667 FPS (1152 SPF)
Compression mode                         : Lossy
Delay relative to video                  : 10 ms
Stream size                              : 235 MiB (1%)
Language                                 : English

</pre>
</div>
<div class="bbCodeBlock bbCodeVfcHH HiddenContent">
<div class="attribution type">Hidden Content:</div>
<blockquote>You must reply before you can see the hidden data contained here.</blockquote>
</div>
<div class="messageTextEndMarker">&nbsp;</div>
</blockquote>
</article>]]></description>
                <author><![CDATA[ilya2129]]></author>
                </item>

                
                <item>
                <title><![CDATA[【Requests】[REQ VID] - Justice - Glastonbury - June 30, 2024]]></title>
                <link><![CDATA[https://sharemania.us/threads/justice-glastonbury-june-30-2024.248399/]]></link>
                <description><![CDATA[<article>
<blockquote class="messageText SelectQuoteContainer ugc baseHtml">
not picky on format, just highest resolution possible. thanks!
<div class="messageTextEndMarker">&nbsp;</div>
</blockquote>
</article>]]></description>
                <author><![CDATA[ediskrad73]]></author>
                </item>

                </channel></rss>